<?xml version="1.0" standalone="no"?>
<!DOCTYPE svg PUBLIC "-//W3C//DTD SVG 20010904//EN"
 "http://www.w3.org/TR/2001/REC-SVG-20010904/DTD/svg10.dtd">
<svg version="1.0" xmlns="http://www.w3.org/2000/svg"
 width="190.679895pt" height="262.499176pt" viewBox="0 0 190.679895 262.499176"
 preserveAspectRatio="xMidYMid meet">
<metadata>
Created by potrace 1.12, written by Peter Selinger 2001-2015
</metadata>
<g transform="translate(-0.260425,263.000000) scale(0.100000,-0.100000)"
fill="#000000" stroke="none">
<path d="M400 2622 c0 -5 -13 -24 -30 -42 -16 -18 -30 -42 -30 -52 0 -10 -11
-40 -24 -66 -53 -105 -215 -382 -250 -427 -45 -59 -70 -141 -62 -198 9 -57 64
-180 129 -291 l55 -91 -5 -75 c-3 -41 2 -127 10 -190 10 -83 12 -133 5 -175
-6 -40 -5 -90 3 -154 14 -115 13 -147 -6 -202 -23 -63 -19 -181 9 -295 14 -54
30 -139 36 -189 19 -159 36 -181 120 -156 50 15 85 14 143 -4 79 -24 102 -3
38 33 -22 13 -67 43 -100 68 -86 64 -95 99 -95 344 l-1 185 38 97 c51 133 66
203 74 338 5 87 10 118 22 128 28 23 179 121 213 138 35 18 201 149 230 181
24 26 45 79 53 133 l7 46 71 13 c40 6 106 19 147 27 41 7 131 21 200 29 69 8
147 22 173 31 35 12 63 14 100 10 72 -10 82 -10 165 5 102 19 94 36 -20 42
-51 2 -127 12 -168 22 -50 12 -117 18 -200 18 -108 0 -137 -3 -219 -28 -109
-32 -181 -31 -248 4 -55 28 -73 47 -73 80 0 32 21 54 65 68 27 9 30 13 28 49
-2 21 -3 50 -4 64 0 13 -9 30 -19 37 -10 7 -26 35 -35 62 -19 58 -26 65 -84
82 -26 8 -62 30 -86 54 -46 44 -136 92 -228 121 -63 20 -127 77 -127 114 0 11
-4 20 -10 20 -5 0 -10 -4 -10 -8z m154 -244 c61 -39 115 -74 119 -78 5 -4 1
-35 -8 -68 l-17 -61 -41 -3 c-32 -2 -45 -9 -56 -29 -13 -23 -12 -33 4 -90 9
-35 18 -88 19 -116 3 -120 46 -18 54 124 l5 102 18 -37 c17 -34 33 -48 112
-96 29 -18 35 -40 13 -53 -7 -4 -31 -46 -53 -93 -37 -78 -138 -228 -175 -258
-12 -10 -27 -10 -68 -1 -29 6 -65 9 -80 5 -27 -5 -33 1 -86 81 -31 47 -79 112
-106 145 l-50 59 26 20 c29 23 78 121 127 254 38 106 44 115 74 115 25 0 28 7
41 103 3 26 9 47 12 47 3 0 55 -32 116 -72z"/>
</g>
</svg>
